HIERARCHY
ROOT Hips
{
 OFFSET 0.000000 0.000000 0.000000
 CHANNELS 6 Xposition Yposition Zposition Yrotation Xrotation Zrotation
 JOINT Chest
 {
  OFFSET 0.000000 9.581000 -0.001100
  CHANNELS 3 Yrotation Xrotation Zrotation
  JOINT Chest2
  {
   OFFSET 0.000000 9.561100 0.002200
   CHANNELS 3 Yrotation Xrotation Zrotation
   JOINT Chest3
   {
    OFFSET 0.000000 9.521100 0.000000
    CHANNELS 3 Yrotation Xrotation Zrotation
    JOINT Chest4
    {
     OFFSET 0.000000 9.511400 0.000000
     CHANNELS 3 Yrotation Xrotation Zrotation
     JOINT Neck
     {
      OFFSET 0.000000 14.375100 0.000000
      CHANNELS 3 Yrotation Xrotation Zrotation
      JOINT Head
      {
       OFFSET 0.000000 8.901200 0.004600
       CHANNELS 3 Yrotation Xrotation Zrotation
       End Site
       {
        OFFSET 0.000000 16.962200 0.002400
       }
      }
     }
     JOINT RightCollar
     {
      OFFSET -2.920100 9.518800 0.000000
      CHANNELS 3 Yrotation Xrotation Zrotation
      JOINT RightShoulder
      {
       OFFSET -13.664500 0.000000 0.000000
       CHANNELS 3 Yrotation Xrotation Zrotation
       JOINT RightElbow
       {
        OFFSET 0.000000 -29.999200 0.000000
        CHANNELS 3 Yrotation Xrotation Zrotation
        JOINT RightWrist
        {
         OFFSET 0.000000 -24.253600 0.000000
         CHANNELS 3 Yrotation Xrotation Zrotation
         End Site
         {
          OFFSET 0.000000 -17.918900 0.000000
         }
        }
       }
      }
     }
     JOINT LeftCollar
     {
      OFFSET 2.920100 9.518800 0.000000
      CHANNELS 3 Yrotation Xrotation Zrotation
      JOINT LeftShoulder
      {
       OFFSET 13.664500 0.000000 0.000000
       CHANNELS 3 Yrotation Xrotation Zrotation
       JOINT LeftElbow
       {
        OFFSET 0.000000 -29.999200 0.000000
        CHANNELS 3 Yrotation Xrotation Zrotation
        JOINT LeftWrist
        {
         OFFSET 0.000000 -24.253600 0.000000
         CHANNELS 3 Yrotation Xrotation Zrotation
         End Site
         {
          OFFSET 0.000000 -17.918900 0.000000
         }
        }
       }
      }
     }
    }
   }
  }
 }
 JOINT RightHip
 {
  OFFSET -7.797300 0.005300 0.000500
  CHANNELS 3 Yrotation Xrotation Zrotation
  JOINT RightKnee
  {
   OFFSET 0.000000 -40.663400 -0.000500
   CHANNELS 3 Yrotation Xrotation Zrotation
   JOINT RightAnkle
   {
    OFFSET 0.000000 -39.523700 -0.000900
    CHANNELS 3 Yrotation Xrotation Zrotation
    JOINT RightToe
    {
     OFFSET 0.000000 -6.418000 14.485300
     CHANNELS 3 Yrotation Xrotation Zrotation
     End Site
     {
      OFFSET 0.000000 -1.465200 6.326400
     }
    }
   }
  }
 }
 JOINT LeftHip
 {
  OFFSET 7.797300 0.005300 0.000500
  CHANNELS 3 Yrotation Xrotation Zrotation
  JOINT LeftKnee
  {
   OFFSET 0.000000 -40.663400 -0.000500
   CHANNELS 3 Yrotation Xrotation Zrotation
   JOINT LeftAnkle
   {
    OFFSET 0.000000 -39.523700 -0.000900
    CHANNELS 3 Yrotation Xrotation Zrotation
    JOINT LeftToe
    {
     OFFSET 0.000000 -6.418000 14.485300
     CHANNELS 3 Yrotation Xrotation Zrotation
     End Site
     {
      OFFSET 0.000000 -1.465200 6.326400
     }
    }
   }
  }
 }
}
MOTION
Frames: 11
Frame Time: 0.008333
-14.849328 126.891691 14.875203 174.158088 -47.553668 -4.946149 2.939794 28.101745 5.143693 0.332977 5.160542 0.808316 0.557746 8.110197 1.287772 2.128046 22.697294 3.965418 4.294145 8.341735 -5.079643 6.059236 -16.893491 -6.747396 1.347292 0.063569 1.647581 5.791598 -8.634226 -12.559869 -98.152545 -60.082692 150.454286 9.253795 16.224274 -0.205981 -10.582043 -1.627642 1.415919 -6.128484 -11.826214 8.604131 59.487603 -51.024463 -111.201569 3.943376 -11.732210 9.533630 -15.292962 -11.000873 6.192741 12.267283 76.072079 28.499145 23.070720 -18.104953 13.940011 -0.000862 -0.012112 -0.000382 9.720512 -18.162924 -4.788041 12.617965 67.941161 0.704529 6.474071 -7.707712 14.158736 -0.002339 0.000176 -0.001036
-14.846924 126.892194 14.874351 174.152990 -47.549092 -4.924477 2.941746 28.099720 5.136691 0.333639 5.158976 0.806502 0.559097 8.107897 1.285255 2.123374 22.696934 3.960624 4.208125 8.257771 -5.236387 6.003407 -16.980314 -6.900706 1.390362 0.033533 1.599780 5.712249 -8.589855 -12.502920 -97.941593 -60.150309 150.282500 9.198199 16.227719 -0.369725 -10.569608 -1.624062 1.428745 -6.066873 -11.805103 8.546531 59.313306 -50.982772 -111.037514 3.994182 -11.725100 9.682879 -15.293044 -11.009952 6.189105 12.308054 76.074910 28.533873 23.084405 -18.089624 13.923219 0.003107 -0.006637 0.001377 9.726572 -18.160435 -4.795285 12.614038 67.941708 0.689778 6.460753 -7.706844 14.162924 -0.003759 -0.000002 -0.001666
-14.845449 126.892306 14.873748 174.154418 -47.541833 -4.903129 2.940830 28.095592 5.126601 0.333751 5.156914 0.804527 0.565461 8.097991 1.281398 2.117018 22.701129 3.954258 4.112072 8.174142 -5.381937 5.944257 -17.062597 -7.044892 1.398746 0.012596 1.578795 5.678572 -8.565161 -12.487170 -97.739801 -60.217277 150.116996 9.108090 16.224782 -0.595784 -10.570470 -1.618947 1.447189 -6.013558 -11.789825 8.492374 59.130808 -50.933573 -110.859093 4.049283 -11.730880 9.831811 -15.297218 -11.023362 6.184443 12.336309 76.081793 28.555494 23.080425 -18.088456 13.906139 0.003977 -0.006400 0.001762 9.727773 -18.159928 -4.806350 12.595242 67.941278 0.657959 6.464053 -7.704601 14.159642 -0.002773 0.000502 -0.001229
-14.846868 126.891213 14.873749 174.162600 -47.526014 -4.871224 2.922277 28.082165 5.094214 0.333658 5.152786 0.801643 0.564855 8.090865 1.274759 2.116237 22.684866 3.932257 4.019344 8.110990 -5.502930 5.883278 -17.142257 -7.179710 1.411704 0.007882 1.570541 5.660693 -8.545492 -12.483794 -97.553400 -60.282175 149.956594 9.010562 16.216392 -0.858432 -10.574558 -1.588364 1.473739 -5.977634 -11.786642 8.453520 58.944693 -50.859565 -110.670003 4.138586 -11.752548 9.960294 -15.303464 -11.049313 6.162931 12.370959 76.090490 28.582993 23.083665 -18.089429 13.889489 0.003588 -0.004254 0.001590 9.727183 -18.163411 -4.832176 12.592114 67.937420 0.630000 6.465050 -7.705579 14.165161 -0.000527 -0.000280 -0.000233
-14.846556 126.890860 14.873558 174.173708 -47.515727 -4.853543 2.913404 28.071972 5.077827 0.340740 5.142216 0.797197 0.555052 8.087161 1.267468 2.109368 22.695253 3.937136 3.931097 8.029326 -5.645260 5.822920 -17.218755 -7.305109 1.432075 -0.025722 1.531954 5.666876 -8.525790 -12.484038 -97.393050 -60.345676 149.804314 8.930353 16.201436 -1.099941 -10.558116 -1.593517 1.483413 -5.975968 -11.779109 8.428019 58.771332 -50.761132 -110.482819 4.240490 -11.804524 10.067382 -15.316368 -11.062800 6.158412 12.361647 76.096530 28.562269 23.081561 -18.094601 13.874588 0.003838 -0.002365 0.001701 9.719335 -18.164190 -4.839708 12.598451 67.937885 0.603604 6.457188 -7.708515 14.175575 -0.000849 -0.000910 -0.000376
-14.845519 126.891022 14.873177 174.176285 -47.510273 -4.836124 2.910492 28.065095 5.061922 0.341436 5.136678 0.793566 0.554852 8.080711 1.262375 2.101835 22.692878 3.924752 3.852700 7.961952 -5.763952 5.762826 -17.289331 -7.421535 1.453340 -0.056631 1.508417 5.695292 -8.503647 -12.495531 -97.257763 -60.394087 149.667258 8.857131 16.186581 -1.318068 -10.546850 -1.592823 1.507091 -5.970408 -11.765655 8.403597 58.598329 -50.660374 -110.299863 4.327681 -11.881961 10.145430 -15.316855 -11.071516 6.146056 12.403824 76.099257 28.606340 23.068978 -18.102278 13.855273 -0.001112 -0.007156 -0.000493 9.717650 -18.162049 -4.844696 12.576116 67.937799 0.565571 6.455557 -7.705807 14.174991 0.000159 -0.000457 0.000070
-14.842833 126.891652 14.872865 174.175871 -47.508560 -4.829180 2.918011 28.058794 5.062192 0.342445 5.133326 0.786707 0.555728 8.074139 1.257585 2.098752 22.685132 3.913880 3.773232 7.905562 -5.874656 5.700629 -17.353259 -7.529104 1.464737 -0.088274 1.488945 5.742452 -8.481824 -12.519125 -97.162774 -60.406571 149.546375 8.801337 16.193207 -1.510933 -10.542031 -1.629025 1.532674 -5.961726 -11.748446 8.338400 58.369576 -50.567178 -110.067646 4.398966 -11.962458 10.182480 -15.326036 -11.072301 6.151681 12.433700 76.101567 28.627046 23.058254 -18.105241 13.837452 -0.002524 -0.009480 -0.001118 9.713121 -18.156739 -4.819539 12.542062 67.941010 0.498176 6.436814 -7.704328 14.185609 0.001953 0.000441 0.000865
-14.841433 126.891252 14.873355 174.174104 -47.499989 -4.817112 2.930813 28.045370 5.054834 0.332449 5.133456 0.787229 0.562375 8.063782 1.246502 2.103512 22.679547 3.909192 3.688418 7.853820 -5.980893 5.637047 -17.409683 -7.626801 1.467475 -0.126748 1.472444 5.799606 -8.458738 -12.553205 -97.080307 -60.434243 149.445285 8.757962 16.166951 -1.701688 -10.554434 -1.640832 1.555717 -5.975375 -11.743783 8.313694 58.213607 -50.448866 -109.906030 4.449749 -12.039962 10.185061 -15.337247 -11.082723 6.157506 12.416590 76.105607 28.594314 23.074629 -18.093971 13.826247 -0.000949 -0.004899 -0.000421 9.719619 -18.158971 -4.814795 12.523092 67.939474 0.463739 6.422260 -7.698470 14.189955 0.001049 0.000525 0.000465
-14.841671 126.890977 14.873537 174.184212 -47.493233 -4.806982 2.921916 28.037651 5.036636 0.332801 5.131175 0.785584 0.568292 8.053339 1.231108 2.108826 22.673115 3.902861 3.605179 7.810699 -6.077383 5.571042 -17.457907 -7.713818 1.474606 -0.168614 1.460387 5.853034 -8.433896 -12.590788 -96.997104 -60.475954 149.361250 8.728127 16.105985 -1.879333 -10.568430 -1.652711 1.579126 -6.001975 -11.742301 8.298254 58.076094 -50.327411 -109.762633 4.468205 -12.118739 10.162020 -15.345327 -11.097084 6.146618 12.461136 76.111796 28.633735 23.090566 -18.077754 13.813266 0.003656 -0.000419 0.001620 9.720319 -18.157216 -4.816517 12.538042 67.937190 0.451949 6.398345 -7.693879 14.203496 -0.002377 -0.000357 -0.001053
-14.842520 126.890376 14.874040 174.190844 -47.485255 -4.793827 2.917729 28.026304 5.009082 0.333983 5.126996 0.782219 0.567268 8.053708 1.236648 2.123736 22.640373 3.838250 3.519915 7.790244 -6.118530 5.500975 -17.498282 -7.791400 1.476404 -0.195719 1.493631 5.897295 -8.413095 -12.626851 -96.926817 -60.486183 149.287040 8.708274 16.054289 -2.024489 -10.592585 -1.639156 1.641034 -6.029130 -11.731514 8.296187 57.972493 -50.215636 -109.659343 4.459592 -12.189304 10.107927 -15.349464 -11.112917 6.139092 12.482817 76.120196 28.646411 23.083808 -18.079572 13.810724 0.002473 -0.000158 0.001095 9.724190 -18.158848 -4.829711 12.530947 67.934316 0.438288 6.394095 -7.686988 14.202931 -0.002223 -0.000504 -0.000985
-14.841875 126.890456 14.874377 174.190900 -47.483589 -4.787304 2.931174 28.017578 4.998043 0.345866 5.111622 0.761203 0.554060 8.066783 1.261464 2.124860 22.636682 3.831029 3.436223 7.750341 -6.219007 5.428390 -17.532364 -7.861329 1.491809 -0.249069 1.459630 5.936556 -8.400117 -12.664159 -96.843610 -60.492672 149.213826 8.675106 15.986235 -2.170038 -10.605528 -1.666279 1.641577 -6.036515 -11.698633 8.307954 57.913156 -50.113629 -109.627768 4.450245 -12.241367 10.012701 -15.349603 -11.117389 6.139845 12.497055 76.124489 28.658483 23.063899 -18.085520 13.806106 0.001070 -0.002338 0.000474 9.742719 -18.151436 -4.823034 12.480142 67.931353 0.385878 6.386298 -7.685518 14.211826 0.000155 0.000523 0.000069
